<svg xmlns="http://www.w3.org/2000/svg" xmlns:xlink="http://www.w3.org/1999/xlink" width="1000" zoomAndPan="magnify" viewBox="0 0 750 749.999995" height="1000" preserveAspectRatio="xMidYMid meet" version="1.0"><rect x="-75" width="900" fill="#ffffff" y="-74.999999" height="899.999994" fill-opacity="1"/><rect x="-75" width="900" fill="#ffffff" y="-74.999999" height="899.999994" fill-opacity="1"/><path fill="#000000" d="M 342.515625 10.671875 C 337.402344 11.308594 338.066406 9.398438 330.5 45.21875 L 325.4375 69.183594 L 314.410156 71.496094 C 301.078125 74.289062 275.71875 81.289062 269.46875 83.902344 L 264.9375 85.796875 L 251.648438 71.21875 C 244.339844 63.199219 235.089844 53.160156 231.085938 48.910156 L 223.808594 41.183594 L 211.230469 48.070312 C 190.484375 59.425781 162.453125 76.542969 161.796875 78.253906 C 161.460938 79.136719 165.035156 92.085938 169.742188 107.027344 L 178.304688 134.199219 L 155.617188 156.738281 L 132.933594 179.28125 L 105.363281 170.503906 L 77.789062 161.722656 L 75.164062 164.964844 C 71.515625 169.46875 56.179688 195.445312 47.53125 211.765625 L 40.316406 225.375 L 84.730469 266.015625 L 80.125 279.6875 C 77.597656 287.207031 73.976562 300.691406 72.085938 309.652344 C 70.195312 318.613281 68.519531 326.074219 68.363281 326.226562 C 68.203125 326.382812 55.222656 329.382812 39.515625 332.902344 C 23.804688 336.417969 10.644531 339.582031 10.269531 339.933594 C 9.898438 340.289062 9.589844 356.394531 9.589844 375.726562 C 9.589844 395.0625 9.898438 411.183594 10.269531 411.550781 C 10.941406 412.214844 53.960938 422.332031 63.449219 424.054688 L 68.339844 424.941406 L 71.371094 439.457031 C 73.035156 447.441406 76.730469 461.140625 79.578125 469.898438 L 84.757812 485.824219 L 66.367188 502.558594 C 56.253906 511.761719 46.160156 520.832031 43.941406 522.71875 L 39.90625 526.148438 L 49.675781 543.8125 C 64.570312 570.746094 76.058594 589.304688 77.859375 589.339844 C 78.75 589.355469 91.296875 585.625 105.742188 581.054688 C 120.1875 576.480469 132.308594 572.667969 132.683594 572.582031 C 133.058594 572.496094 143.492188 582.582031 155.871094 595 L 178.375 617.574219 L 169.808594 644.632812 C 165.097656 659.515625 161.503906 672.394531 161.828125 673.25 C 162.546875 675.167969 181.558594 687.003906 205.949219 700.722656 L 224.234375 711.007812 L 227.765625 706.839844 C 229.707031 704.550781 238.828125 694.417969 248.039062 684.332031 L 264.78125 665.992188 L 278.351562 670.640625 C 285.8125 673.195312 299.394531 676.957031 308.523438 678.996094 L 325.132812 682.703125 L 329.398438 701.691406 C 331.613281 711.535156 333.816406 721.378906 336.003906 731.226562 L 338.339844 741.773438 L 411.460938 741.773438 L 412.226562 738.710938 C 412.648438 737.027344 415.621094 723.761719 418.832031 709.226562 L 424.671875 682.808594 L 439.515625 679.496094 C 447.679688 677.675781 461.261719 673.929688 469.695312 671.167969 L 485.03125 666.148438 L 501.816406 684.570312 C 511.050781 694.699219 520.125 704.78125 521.980469 706.972656 L 525.355469 710.953125 L 539.503906 703.074219 C 560.253906 691.511719 580.707031 679.257812 585.097656 675.757812 L 588.941406 672.691406 L 580.125 644.976562 L 571.308594 617.265625 L 593.863281 594.804688 L 616.417969 572.347656 L 643.519531 580.851562 C 658.425781 585.527344 671.285156 589.355469 672.097656 589.359375 C 673.550781 589.367188 686.503906 568.199219 701.988281 540.519531 L 709.898438 526.371094 L 701.140625 518.378906 C 693.699219 511.613281 686.226562 504.878906 678.726562 498.175781 L 665.070312 485.972656 L 669.496094 472.421875 C 671.925781 464.96875 675.578125 451.273438 677.609375 441.980469 L 681.296875 425.09375 L 694.320312 422.265625 C 716.640625 417.425781 738.539062 412.265625 739.628906 411.59375 C 740.8125 410.863281 741.039062 346.625 739.871094 342.273438 C 739.203125 339.789062 735.480469 338.613281 710.203125 332.914062 L 681.300781 326.398438 L 677.671875 309.773438 C 675.675781 300.632812 671.980469 287.019531 669.464844 279.523438 L 664.886719 265.894531 L 687.132812 245.632812 C 699.371094 234.488281 709.382812 225.195312 709.382812 224.984375 C 709.386719 224.257812 690.070312 189.960938 681.820312 176.042969 C 677.269531 168.371094 672.859375 162.09375 672.015625 162.09375 C 671.175781 162.09375 658.421875 166 643.679688 170.769531 L 616.871094 179.445312 L 571.285156 133.992188 L 579.789062 107.5625 C 584.464844 93.023438 588.304688 80.351562 588.3125 79.402344 C 588.339844 77.175781 575.496094 68.910156 547.898438 53.394531 L 525.824219 40.984375 L 520.015625 47.378906 C 516.820312 50.898438 507.605469 60.917969 499.539062 69.648438 L 484.875 85.515625 L 473.695312 81.769531 C 467.550781 79.707031 455.785156 76.402344 447.558594 74.425781 C 439.328125 72.449219 430.765625 70.371094 428.527344 69.808594 L 424.460938 68.789062 L 418.210938 40.265625 L 411.957031 11.738281 L 406.636719 10.792969 C 401.105469 9.8125 350.214844 9.714844 342.515625 10.671875 M 352.347656 124.875 C 297.144531 130.988281 247.691406 152.667969 207.28125 188.464844 C 183.179688 209.820312 164.46875 234.609375 149.648438 264.832031 C 123.523438 318.097656 116.878906 371.8125 129.285156 429.480469 C 141.3125 485.398438 175.957031 540.269531 221.320312 575.246094 L 229.03125 581.191406 L 233.78125 574.734375 C 241.539062 564.183594 259.03125 548.097656 271.757812 539.804688 C 317.898438 509.734375 374.667969 505 427.128906 526.847656 C 450.585938 536.621094 479.230469 560.246094 494.015625 582.023438 C 503.011719 595.273438 501.121094 595.382812 521.007812 580.460938 C 557.6875 552.933594 582.636719 522.984375 601.277344 484.101562 C 615.183594 455.101562 621.667969 432.144531 625.164062 399.542969 C 628.457031 368.820312 623.777344 327.371094 613.5625 296.808594 C 606.425781 275.464844 590.269531 244.277344 577.253906 226.730469 C 554.246094 195.707031 523.433594 169.636719 489.042969 152.09375 C 452.765625 133.589844 420.390625 125.4375 380.230469 124.6875 C 367.886719 124.460938 355.339844 124.542969 352.347656 124.875 M 467.28125 233.695312 C 428.808594 250.378906 395.394531 257.546875 355.066406 257.777344 C 319.835938 257.976562 295.628906 253.398438 262.285156 240.226562 C 255.890625 237.699219 252.492188 237.101562 248.332031 237.769531 C 236.949219 239.589844 231.0625 252.796875 237.074219 263.011719 C 241.699219 270.863281 271.410156 282.074219 302.703125 287.777344 C 344.71875 295.433594 388.808594 293.554688 431.847656 282.269531 C 462.199219 274.316406 495.011719 260.597656 499.277344 254.082031 C 506.929688 242.402344 499.433594 227.316406 486.050781 227.457031 C 483.582031 227.484375 475.136719 230.289062 467.28125 233.695312 M 504.683594 302.265625 C 501.691406 302.757812 494.347656 305.578125 488.363281 308.539062 C 472.382812 316.441406 454.273438 322.867188 429.777344 329.332031 C 416.722656 332.773438 386.074219 336.519531 365.269531 337.210938 C 323.699219 338.597656 281.464844 331.042969 246.484375 315.96875 C 231.460938 309.496094 218.140625 314.65625 214.261719 328.449219 C 212.429688 334.960938 214.652344 342.976562 219.589844 347.671875 C 228.175781 355.835938 271.082031 369.277344 304.796875 374.367188 C 356.128906 382.109375 413.109375 377.855469 461.644531 362.652344 C 486.363281 354.910156 514.53125 342.242188 521.371094 335.792969 C 535.769531 322.222656 524.242188 299.058594 504.683594 302.265625 M 529.167969 379.753906 C 526.921875 380.320312 520.066406 383.257812 513.929688 386.285156 C 483.378906 401.367188 439.039062 413.925781 396.550781 419.535156 C 379.472656 421.789062 320.695312 421.753906 304.742188 419.476562 C 278.378906 415.71875 250.394531 408.828125 231.976562 401.5625 C 219.957031 396.820312 213.855469 395.789062 207.671875 397.453125 C 186.3125 403.210938 183.359375 430.753906 202.96875 441.316406 C 219.097656 450.007812 258.695312 460.722656 293.179688 465.722656 C 321.175781 469.785156 376.710938 470.117188 404.035156 466.378906 C 448.765625 460.265625 484.585938 450.679688 520.324219 435.261719 C 542.488281 425.703125 543.671875 425.144531 548.128906 422.128906 C 564.460938 411.082031 560.320312 385.09375 541.40625 379.949219 C 535.371094 378.304688 534.96875 378.300781 529.167969 379.753906 " fill-opacity="1" fill-rule="evenodd"/></svg>